<svg xmlns="http://www.w3.org/2000/svg" viewBox="0 0 100 100" width="100" height="100">
  <defs>
    <linearGradient id="bg_dog_35" x1="0" y1="0" x2="1" y2="1">
      <stop offset="0%" stop-color="#bbf7d0"/>
      <stop offset="100%" stop-color="#86efac"/>
    </linearGradient>
  </defs>
  <circle cx="50" cy="50" r="48" fill="url(#bg_dog_35)"/>
  
      <!-- Ears -->
      <polygon points="24,42 14,14 44,26" fill="#475569"/>
      <polygon points="26,38 20,20 38,28" fill="#cbd5e1"/>
      <polygon points="76,42 86,14 56,26" fill="#475569"/>
      <polygon points="74,38 80,20 62,28" fill="#cbd5e1"/>
      <!-- Head -->
      <ellipse cx="50" cy="56" rx="32" ry="28" fill="#475569"/>
      <ellipse cx="50" cy="64" rx="19" ry="15" fill="#f8fafc"/>
      <!-- Eyes -->
      <circle cx="37" cy="49" r="4.5" fill="#1c1917"/>
      <circle cx="38.5" cy="47.5" r="1.6" fill="#ffffff"/>
      <circle cx="63" cy="49" r="4.5" fill="#1c1917"/>
      <circle cx="64.5" cy="47.5" r="1.6" fill="#ffffff"/>
      <!-- Nose & Mouth -->
      <ellipse cx="50" cy="61" rx="5" ry="3.5" fill="#1c1917"/>
      <path d="M46,66 Q50,70 54,66" stroke="#1c1917" stroke-width="2" fill="none" stroke-linecap="round"/>
      <ellipse cx="28" cy="60" rx="4.5" ry="3" fill="#fb7185" opacity="0.6"/>
      <ellipse cx="72" cy="60" rx="4.5" ry="3" fill="#fb7185" opacity="0.6"/>
    
  <polygon points="76,14 78,19 83,19 79,22 81,27 76,24 72,27 74,22 70,19 75,19" fill="#facc15"/>
</svg>