<svg xmlns="http://www.w3.org/2000/svg" viewBox="0 0 100 100" width="100" height="100">
  <defs>
    <linearGradient id="bg_hamster_20" x1="0" y1="0" x2="1" y2="1">
      <stop offset="0%" stop-color="#c7d2fe"/>
      <stop offset="100%" stop-color="#818cf8"/>
    </linearGradient>
  </defs>
  <circle cx="50" cy="50" r="48" fill="url(#bg_hamster_20)"/>
  
      <!-- Ears -->
      <ellipse cx="26" cy="30" rx="9" ry="8" fill="#94a3b8"/>
      <ellipse cx="26" cy="30" rx="5" ry="4.5" fill="#fda4af"/>
      <ellipse cx="74" cy="30" rx="9" ry="8" fill="#94a3b8"/>
      <ellipse cx="74" cy="30" rx="5" ry="4.5" fill="#fda4af"/>
      <!-- Super Round Head -->
      <circle cx="50" cy="56" r="33" fill="#94a3b8"/>
      <!-- Puffy White Muzzle -->
      <ellipse cx="50" cy="66" rx="20" ry="14" fill="#ffffff"/>
      <!-- Big Beads Eyes -->
      <circle cx="36" cy="50" r="5" fill="#09090b"/>
      <circle cx="38" cy="48" r="2" fill="#ffffff"/>
      <circle cx="64" cy="50" r="5" fill="#09090b"/>
      <circle cx="66" cy="48" r="2" fill="#ffffff"/>
      <!-- Tiny Pink Nose & Teeth -->
      <polygon points="48,60 52,60 50,63" fill="#fb7185"/>
      <path d="M47,65 Q50,68 53,65" stroke="#1c1917" stroke-width="1.8" fill="none" stroke-linecap="round"/>
      <!-- Cheeks -->
      <ellipse cx="25" cy="63" rx="5" ry="3.5" fill="#fb7185" opacity="0.7"/>
      <ellipse cx="75" cy="63" rx="5" ry="3.5" fill="#fb7185" opacity="0.7"/>
    
  <circle cx="20" cy="20" r="2" fill="#ffffff"/><circle cx="80" cy="22" r="2.5" fill="#ffffff"/><path d="M22,14 L24,18 L28,20 L24,22 L22,26 L20,22 L16,20 L20,18 Z" fill="#fef08a"/>
</svg>