<svg xmlns="http://www.w3.org/2000/svg" viewBox="0 0 100 100" width="100" height="100">
  <defs>
    <linearGradient id="bg_koala_35" x1="0" y1="0" x2="1" y2="1">
      <stop offset="0%" stop-color="#bbf7d0"/>
      <stop offset="100%" stop-color="#86efac"/>
    </linearGradient>
  </defs>
  <circle cx="50" cy="50" r="48" fill="url(#bg_koala_35)"/>
  
      <!-- Big Fluffy Ears -->
      <circle cx="22" cy="38" r="16" fill="#cbd5e1"/>
      <circle cx="22" cy="38" r="10" fill="#ffffff"/>
      <circle cx="78" cy="38" r="16" fill="#cbd5e1"/>
      <circle cx="78" cy="38" r="10" fill="#ffffff"/>
      <!-- Head -->
      <circle cx="50" cy="55" r="32" fill="#cbd5e1"/>
      <!-- Eyes -->
      <circle cx="36" cy="48" r="4" fill="#0f172a"/>
      <circle cx="37.5" cy="46.5" r="1.5" fill="#ffffff"/>
      <circle cx="64" cy="48" r="4" fill="#0f172a"/>
      <circle cx="65.5" cy="46.5" r="1.5" fill="#ffffff"/>
      <!-- Giant Iconic Koala Nose -->
      <ellipse cx="50" cy="60" rx="8" ry="12" fill="#334155"/>
      <ellipse cx="48" cy="56" rx="2" ry="3" fill="#ffffff" opacity="0.3"/>
      <!-- Mouth -->
      <path d="M46,74 Q50,77 54,74" stroke="#0f172a" stroke-width="1.8" fill="none" stroke-linecap="round"/>
      <ellipse cx="28" cy="60" rx="4.5" ry="3" fill="#fb7185" opacity="0.6"/>
      <ellipse cx="72" cy="60" rx="4.5" ry="3" fill="#fb7185" opacity="0.6"/>
    
  <polygon points="76,14 78,19 83,19 79,22 81,27 76,24 72,27 74,22 70,19 75,19" fill="#facc15"/>
</svg>