<svg xmlns="http://www.w3.org/2000/svg" viewBox="0 0 100 100" width="100" height="100">
  <defs>
    <linearGradient id="bg_panda_26" x1="0" y1="0" x2="1" y2="1">
      <stop offset="0%" stop-color="#fef08a"/>
      <stop offset="100%" stop-color="#fde047"/>
    </linearGradient>
  </defs>
  <circle cx="50" cy="50" r="48" fill="url(#bg_panda_26)"/>
  
      <!-- Ears -->
      <circle cx="25" cy="28" r="13" fill="#78350f"/>
      <circle cx="75" cy="28" r="13" fill="#78350f"/>
      <!-- Head -->
      <circle cx="50" cy="55" r="33" fill="#fffbeb"/>
      <!-- Eye Patches -->
      <ellipse cx="36" cy="49" rx="8" ry="10" fill="#78350f" transform="rotate(-15 36 49)"/>
      <ellipse cx="64" cy="49" rx="8" ry="10" fill="#78350f" transform="rotate(15 64 49)"/>
      <!-- Eyes Inside -->
      <circle cx="36" cy="48" r="3.5" fill="#ffffff"/>
      <circle cx="36" cy="48" r="2" fill="#09090b"/>
      <circle cx="37" cy="47" r="1" fill="#ffffff"/>
      <circle cx="64" cy="48" r="3.5" fill="#ffffff"/>
      <circle cx="64" cy="48" r="2" fill="#09090b"/>
      <circle cx="65" cy="47" r="1" fill="#ffffff"/>
      <!-- Nose & Mouth -->
      <ellipse cx="50" cy="62" rx="6" ry="4" fill="#78350f"/>
      <path d="M46,67 Q50,71 54,67" stroke="#78350f" stroke-width="2" fill="none" stroke-linecap="round"/>
      <ellipse cx="26" cy="62" rx="5" ry="3.5" fill="#fb7185" opacity="0.6"/>
      <ellipse cx="74" cy="62" rx="5" ry="3.5" fill="#fb7185" opacity="0.6"/>
    
  <polygon points="76,14 78,19 83,19 79,22 81,27 76,24 72,27 74,22 70,19 75,19" fill="#facc15"/>
</svg>