<svg xmlns="http://www.w3.org/2000/svg" viewBox="0 0 100 100" width="100" height="100">
  <defs>
    <linearGradient id="bg_penguin_19" x1="0" y1="0" x2="1" y2="1">
      <stop offset="0%" stop-color="#f5d0fe"/>
      <stop offset="100%" stop-color="#e879f9"/>
    </linearGradient>
  </defs>
  <circle cx="50" cy="50" r="48" fill="url(#bg_penguin_19)"/>
  
      <!-- Head -->
      <circle cx="50" cy="54" r="33" fill="#1e293b"/>
      <!-- White Belly & Face Heart -->
      <path d="M30,50 Q50,32 70,50 Q75,82 50,85 Q25,82 30,50 Z" fill="#f8fafc"/>
      <!-- Big Round Eyes -->
      <circle cx="38" cy="49" r="4.5" fill="#0f172a"/>
      <circle cx="39.5" cy="47.5" r="1.6" fill="#ffffff"/>
      <circle cx="62" cy="49" r="4.5" fill="#0f172a"/>
      <circle cx="63.5" cy="47.5" r="1.6" fill="#ffffff"/>
      <!-- Beak -->
      <polygon points="46,58 54,58 50,67" fill="#ea580c"/>
      <!-- Cheeks -->
      <circle cx="28" cy="58" r="4.5" fill="#fb7185" opacity="0.7"/>
      <circle cx="72" cy="58" r="4.5" fill="#fb7185" opacity="0.7"/>
    
  <polygon points="40,24 44,28 50,22 56,28 60,24 58,31 42,31" fill="#facc15" stroke="#ca8a04" stroke-width="1"/>
</svg>