<svg xmlns="http://www.w3.org/2000/svg" viewBox="0 0 100 100" width="100" height="100">
  <defs>
    <linearGradient id="bg_penguin_4" x1="0" y1="0" x2="1" y2="1">
      <stop offset="0%" stop-color="#bae6fd"/>
      <stop offset="100%" stop-color="#7dd3fc"/>
    </linearGradient>
  </defs>
  <circle cx="50" cy="50" r="48" fill="url(#bg_penguin_4)"/>
  
      <!-- Head -->
      <circle cx="50" cy="54" r="33" fill="#0f172a"/>
      <!-- White Belly & Face Heart -->
      <path d="M30,50 Q50,32 70,50 Q75,82 50,85 Q25,82 30,50 Z" fill="#ffffff"/>
      <!-- Big Round Eyes -->
      <circle cx="38" cy="49" r="4.5" fill="#0f172a"/>
      <circle cx="39.5" cy="47.5" r="1.6" fill="#ffffff"/>
      <circle cx="62" cy="49" r="4.5" fill="#0f172a"/>
      <circle cx="63.5" cy="47.5" r="1.6" fill="#ffffff"/>
      <!-- Beak -->
      <polygon points="46,58 54,58 50,67" fill="#f59e0b"/>
      <!-- Cheeks -->
      <circle cx="28" cy="58" r="4.5" fill="#fef08a" opacity="0.7"/>
      <circle cx="72" cy="58" r="4.5" fill="#fef08a" opacity="0.7"/>
    
  <polygon points="43,24 50,29 43,34" fill="#ec4899"/><polygon points="57,24 50,29 57,34" fill="#ec4899"/><circle cx="50" cy="29" r="3" fill="#f43f5e"/>
</svg>