<svg xmlns="http://www.w3.org/2000/svg" viewBox="0 0 100 100" width="100" height="100">
  <defs>
    <linearGradient id="bg_rabbit_19" x1="0" y1="0" x2="1" y2="1">
      <stop offset="0%" stop-color="#f5d0fe"/>
      <stop offset="100%" stop-color="#e879f9"/>
    </linearGradient>
  </defs>
  <circle cx="50" cy="50" r="48" fill="url(#bg_rabbit_19)"/>
  
      <!-- Long Ears -->
      <ellipse cx="36" cy="22" rx="8" ry="22" fill="#fed7aa" transform="rotate(-8 36 22)"/>
      <ellipse cx="36" cy="22" rx="4.5" ry="16" fill="#f43f5e" transform="rotate(-8 36 22)"/>
      <ellipse cx="64" cy="22" rx="8" ry="22" fill="#fed7aa" transform="rotate(8 64 22)"/>
      <ellipse cx="64" cy="22" rx="4.5" ry="16" fill="#f43f5e" transform="rotate(8 64 22)"/>
      <!-- Face -->
      <circle cx="50" cy="58" r="30" fill="#fed7aa"/>
      <!-- Eyes -->
      <ellipse cx="36" cy="52" rx="4.5" ry="5.5" fill="#1c1917"/>
      <circle cx="38" cy="50" r="1.8" fill="#ffffff"/>
      <circle cx="35" cy="54" r="1" fill="#ffffff"/>
      <ellipse cx="64" cy="52" rx="4.5" ry="5.5" fill="#1c1917"/>
      <circle cx="66" cy="50" r="1.8" fill="#ffffff"/>
      <circle cx="63" cy="54" r="1" fill="#ffffff"/>
      <!-- Nose & Mouth (Y shape) -->
      <polygon points="48,61 52,61 50,64" fill="#fb7185"/>
      <path d="M50,64 L50,67 M46,69 Q50,67 50,67 Q50,67 54,69" stroke="#1c1917" stroke-width="1.8" fill="none" stroke-linecap="round"/>
      <!-- Whiskers -->
      <line x1="22" y1="62" x2="34" y2="63" stroke="#94a3b8" stroke-width="1.5" stroke-linecap="round"/>
      <line x1="78" y1="62" x2="66" y2="63" stroke="#94a3b8" stroke-width="1.5" stroke-linecap="round"/>
      <!-- Rosy Cheeks -->
      <ellipse cx="28" cy="62" rx="5.5" ry="3.5" fill="#fb7185" opacity="0.7"/>
      <ellipse cx="72" cy="62" rx="5.5" ry="3.5" fill="#fb7185" opacity="0.7"/>
    
  <polygon points="40,24 44,28 50,22 56,28 60,24 58,31 42,31" fill="#facc15" stroke="#ca8a04" stroke-width="1"/>
</svg>