<svg xmlns="http://www.w3.org/2000/svg" viewBox="0 0 100 100" width="100" height="100">
  <defs>
    <linearGradient id="bg_squirrel_33" x1="0" y1="0" x2="1" y2="1">
      <stop offset="0%" stop-color="#ddd6fe"/>
      <stop offset="100%" stop-color="#c4b5fd"/>
    </linearGradient>
  </defs>
  <circle cx="50" cy="50" r="48" fill="url(#bg_squirrel_33)"/>
  
      <!-- Tiny Round Ears -->
      <circle cx="28" cy="30" r="10" fill="#f59e0b"/>
      <circle cx="28" cy="30" r="6" fill="#fed7aa"/>
      <circle cx="72" cy="30" r="10" fill="#f59e0b"/>
      <circle cx="72" cy="30" r="6" fill="#fed7aa"/>
      <!-- Face with chubby cheeks -->
      <circle cx="50" cy="54" r="32" fill="#f59e0b"/>
      <!-- Stripes on Forehead -->
      <line x1="50" y1="26" x2="50" y2="44" stroke="#92400e" stroke-width="3" stroke-linecap="round"/>
      <line x1="44" y1="30" x2="44" y2="42" stroke="#92400e" stroke-width="2.2" stroke-linecap="round"/>
      <line x1="56" y1="30" x2="56" y2="42" stroke="#92400e" stroke-width="2.2" stroke-linecap="round"/>
      <!-- Puffy Cheeks -->
      <circle cx="34" cy="64" r="15" fill="#fef3c7"/>
      <circle cx="66" cy="64" r="15" fill="#fef3c7"/>
      <!-- Eyes -->
      <circle cx="36" cy="50" r="4.5" fill="#1c1917"/>
      <circle cx="37.5" cy="48.5" r="1.6" fill="#ffffff"/>
      <circle cx="64" cy="50" r="4.5" fill="#1c1917"/>
      <circle cx="65.5" cy="48.5" r="1.6" fill="#ffffff"/>
      <!-- Tiny Nose & Buck Tooth -->
      <ellipse cx="50" cy="61" rx="3.5" ry="2.5" fill="#1c1917"/>
      <rect x="48" y="65" width="4" height="4" rx="1" fill="#ffffff" stroke="#1c1917" stroke-width="1"/>
      <ellipse cx="26" cy="62" rx="4" ry="2.5" fill="#fb7185" opacity="0.6"/>
      <ellipse cx="74" cy="62" rx="4" ry="2.5" fill="#fb7185" opacity="0.6"/>
    
  <path d="M50,18 Q58,12 60,20 Q56,26 50,24 Q48,20 50,18 Z" fill="#22c55e"/><path d="M50,24 L54,18" stroke="#15803d" stroke-width="1"/>
</svg>