<svg xmlns="http://www.w3.org/2000/svg" viewBox="0 0 100 100" width="100" height="100">
  <defs>
    <linearGradient id="bg_wolf_30" x1="0" y1="0" x2="1" y2="1">
      <stop offset="0%" stop-color="#c7d2fe"/>
      <stop offset="100%" stop-color="#818cf8"/>
    </linearGradient>
  </defs>
  <circle cx="50" cy="50" r="48" fill="url(#bg_wolf_30)"/>
  
      <!-- Ears -->
      <polygon points="22,46 14,14 44,28" fill="#e2e8f0"/>
      <polygon points="24,40 18,22 38,30" fill="#cbd5e1"/>
      <polygon points="78,46 86,14 56,28" fill="#e2e8f0"/>
      <polygon points="76,40 82,22 62,30" fill="#cbd5e1"/>
      <!-- Head -->
      <polygon points="50,26 24,50 30,76 50,86 70,76 76,50" fill="#e2e8f0"/>
      <!-- Muzzle -->
      <polygon points="50,46 36,66 50,82 64,66" fill="#ffffff"/>
      <!-- Fierce Eyes -->
      <polygon points="32,48 42,46 38,53" fill="#0ea5e9"/>
      <circle cx="37" cy="49" r="1.5" fill="#0f172a"/>
      <polygon points="68,48 58,46 62,53" fill="#0ea5e9"/>
      <circle cx="63" cy="49" r="1.5" fill="#0f172a"/>
      <!-- Nose & Mouth -->
      <polygon points="46,65 54,65 50,71" fill="#0f172a"/>
      <path d="M46,74 Q50,77 54,74" stroke="#0f172a" stroke-width="1.8" fill="none" stroke-linecap="round"/>
    
  <path d="M78,16 A3.5,3.5 0 0,0 72,20 A3.5,3.5 0 0,0 66,16 A3.5,3.5 0 0,0 63,22 Q63,27 72,32 Q81,27 81,22 A3.5,3.5 0 0,0 78,16 Z" fill="#f43f5e"/>
</svg>